<?xml version="1.0" standalone="no"?>
<!DOCTYPE svg PUBLIC "-//W3C//DTD SVG 20010904//EN"
 "http://www.w3.org/TR/2001/REC-SVG-20010904/DTD/svg10.dtd">
<svg version="1.0" xmlns="http://www.w3.org/2000/svg"
 width="256.000000pt" height="256.000000pt" viewBox="0 0 256.000000 256.000000"
 preserveAspectRatio="xMidYMid meet">

<g transform="translate(0.000000,256.000000) scale(0.100000,-0.100000)"
fill="#000000" stroke="none">
<path d="M515 2352 c-128 -30 -252 -358 -229 -607 6 -78 38 -225 54 -256 8
-15 3 -42 -24 -121 -36 -105 -66 -251 -66 -318 0 -21 -3 -52 -6 -70 -7 -31 -8
-32 -50 -27 -34 3 -47 0 -60 -14 -16 -18 -16 -20 1 -39 10 -11 30 -20 44 -20
57 0 67 -9 80 -68 7 -31 15 -62 17 -69 4 -7 -17 -14 -61 -18 -86 -10 -118 -38
-75 -68 15 -10 33 -12 67 -6 99 16 104 14 148 -52 128 -194 398 -338 713 -380
111 -15 412 -6 512 14 287 60 523 201 635 380 l30 48 85 -7 c72 -5 88 -4 99
10 24 29 -10 53 -85 61 -55 6 -64 9 -59 23 4 10 11 40 18 67 13 58 20 65 68
65 23 0 42 7 54 20 17 19 17 21 1 39 -13 15 -26 18 -58 14 -49 -7 -58 4 -58
73 0 82 -29 231 -65 339 l-34 101 25 79 c53 168 50 377 -8 552 -54 163 -129
256 -208 256 -81 0 -236 -98 -408 -258 l-83 -77 -124 11 c-96 9 -154 9 -250 0
l-124 -11 -83 77 c-189 176 -357 276 -433 257z m134 -116 c62 -38 141 -99 239
-185 l61 -55 -84 -31 c-99 -38 -174 -81 -260 -152 -62 -51 -162 -169 -193
-228 l-16 -30 -14 45 c-23 70 -22 336 1 420 25 90 72 189 110 228 40 42 71 39
156 -12z m1420 9 c42 -48 76 -118 103 -212 20 -67 23 -100 22 -233 -1 -107 -6
-169 -16 -200 l-14 -45 -17 32 c-32 61 -137 182 -204 236 -78 63 -170 115
-261 147 -34 13 -61 26 -60 31 11 28 244 212 322 253 66 35 88 33 125 -9z
m-829 -449 c0 -136 3 -167 16 -180 8 -9 19 -16 24 -16 5 0 16 7 24 16 13 13
16 44 16 181 l0 166 78 -7 c132 -11 122 -1 122 -131 0 -90 3 -117 16 -129 18
-18 23 -19 44 -6 11 7 16 36 20 119 l5 110 80 -32 c205 -83 369 -250 462 -470
53 -126 93 -310 93 -430 l0 -55 -65 -7 c-85 -9 -114 -35 -79 -70 15 -15 35
-15 112 1 18 4 22 0 22 -19 0 -13 -5 -39 -11 -57 -12 -32 -13 -32 -60 -27 -47
6 -79 -8 -79 -33 0 -17 32 -40 56 -40 40 0 28 -25 -47 -105 -187 -196 -457
-295 -809 -295 -220 0 -412 40 -574 121 -102 51 -158 93 -240 179 -71 75 -81
100 -42 100 24 0 56 23 56 40 0 25 -32 39 -79 33 -47 -5 -48 -5 -60 27 -6 18
-11 44 -11 57 0 19 4 23 23 19 76 -16 96 -16 111 -1 35 35 6 61 -79 70 l-65 7
0 55 c0 120 40 304 93 430 93 220 257 387 462 470 l80 32 5 -110 c4 -83 9
-112 20 -119 21 -13 26 -12 44 6 13 12 16 39 16 129 l0 114 38 6 c20 4 44 8
52 10 8 1 36 3 63 4 l47 1 0 -164z"/>
<path d="M650 1258 c-89 -45 -112 -147 -55 -244 28 -47 99 -114 163 -151 l42
-25 43 25 c107 63 182 156 193 238 12 97 -79 189 -171 174 -22 -4 -51 -7 -65
-7 -14 0 -43 3 -65 7 -31 5 -50 1 -85 -17z"/>
<path d="M1610 1258 c-89 -45 -112 -147 -55 -244 28 -47 99 -114 163 -151 l42
-25 43 25 c107 63 182 156 193 238 12 97 -79 189 -171 174 -22 -4 -51 -7 -65
-7 -14 0 -43 3 -65 7 -31 5 -50 1 -85 -17z"/>
<path d="M1210 988 c-42 -12 -69 -34 -81 -67 -13 -34 21 -100 68 -131 21 -13
40 -25 42 -27 2 -2 -4 -12 -14 -23 -37 -40 -94 -18 -109 41 -10 46 -61 48 -72
3 -8 -30 23 -92 57 -117 39 -28 97 -32 142 -9 37 20 37 20 75 0 44 -23 102
-19 141 9 34 25 65 87 57 117 -11 45 -62 43 -72 -3 -15 -59 -72 -81 -109 -41
-10 11 -16 21 -14 23 2 2 21 14 42 27 47 31 81 97 68 131 -24 64 -124 95 -221
67z m118 -74 c29 -8 28 -28 -4 -53 -36 -28 -58 -26 -96 8 l-33 30 25 10 c29
11 75 13 108 5z"/>
</g>
</svg>
